<svg width="36" height="36" viewBox="0 0 36 36" fill="none" xmlns="http://www.w3.org/2000/svg">
<path d="M18 36C8.05838 36 0 27.9416 0 18C0 8.05838 8.05838 0 18 0C27.9416 0 36 8.05838 36 18C36 27.9416 27.9416 36 18 36ZM13.1479 11.3197H13.1839C16.4182 11.3906 19.6526 11.25 22.887 11.3906C23.6947 11.3906 24.6443 11.7776 24.8197 12.6214C25.101 14.5901 23.4495 16.3834 21.6562 16.8401C19.6875 17.1562 17.7188 17.0505 15.7849 17.0505C15.3182 18.2 14.8494 19.3486 14.3786 20.4964C16.7344 20.4964 19.0901 20.601 21.4099 20.25C23.0479 19.8838 24.5644 19.103 25.814 17.9825C27.0637 16.8621 28.0047 15.4395 28.5469 13.851C29.1094 12.375 29.3557 10.512 28.2307 9.2115C27.2812 8.01562 25.5938 8.01562 24.1875 7.90875L14.5541 7.875L13.1479 11.3197ZM9 12.2692V12.3041L7.45312 16.1719H18.9146L20.4255 12.2692H9ZM10.8281 17.0505H10.863L6.75 27.5974H10.6526L14.8005 17.0505H10.8281Z" fill="#0059FF"/>
</svg>
